<svg width="513" height="513" viewBox="0 0 513 513" fill="none" xmlns="http://www.w3.org/2000/svg">
<g clip-path="url(#clip0)">
<path d="M283 214.019C287.774 209.062 293.949 205.401 301.014 203.708L326.548 197.589L326.559 197.606L326.548 197.589V182H357.73V197.639L383.198 203.723C399.851 207.701 411.6 222.587 411.6 239.709V258.385H355.147L283 214.019Z" fill="#ECAE1E"/>
<path d="M229.6 214.019C224.826 209.062 218.651 205.401 211.586 203.708L186.052 197.589L186.041 197.606L186.052 197.589V182H154.87V197.639L129.402 203.723C112.749 207.701 101 222.587 101 239.709V258.385H157.453L229.6 214.019Z" fill="#007A34"/>
<path d="M105.91 388.882L73.267 354.142C62.787 342.988 56.953 328.259 56.953 312.954V189.939C56.953 178.933 49.307 169.405 38.563 167.02C23.903 163.767 10 174.922 10 189.939V344.991C10 363.116 15.636 380.793 26.129 395.573L43.962 420.694L86.626 480.793L101.68 502H215.419L199.035 423.911C191.648 388.705 170.811 357.773 140.959 337.701L105.978 314.18C95.555 307.172 81.555 308.959 73.227 318.36C63.965 328.815 64.21 344.606 73.796 354.765C92.951 375.063 121.451 405.411 121.451 405.411" fill="#FFCDAC"/>
<path d="M406.09 388.882L438.733 354.142C449.213 342.988 455.047 328.259 455.047 312.954V189.939C455.047 178.933 462.693 169.405 473.437 167.02C488.097 163.767 502 174.922 502 189.939V344.991C502 363.116 496.364 380.793 485.871 395.573L468.038 420.694L425.374 480.793L410.32 502H296.581L312.965 423.911C320.352 388.705 341.189 357.773 371.041 337.701L406.022 314.18C416.445 307.172 430.445 308.959 438.773 318.36C448.035 328.815 447.79 344.606 438.204 354.765C419.049 375.063 390.549 405.411 390.549 405.411" fill="#FFCDAC"/>
<path d="M234.313 211.07L198.747 219.593C175.568 225.148 159.223 245.873 159.223 269.708V305.667H352.777V269.738C352.777 245.889 336.413 225.156 313.217 219.615L277.744 211.141" fill="white"/>
<path d="M277.743 189.357V211.139L256.039 260.5L234.313 211.07V189.357" fill="#FFB487"/>
<path d="M304.536 114.551V144.626C304.536 171.362 282.862 193.036 256.126 193.036C229.39 193.036 207.716 171.362 207.716 144.626V114.551" fill="#FFCDAC"/>
<path d="M256.126 64C229.39 64 207.716 85.674 207.716 112.41V124.064H231.385C247.119 124.064 262.046 117.098 272.151 105.038L304.536 124.064V112.41C304.536 85.674 282.863 64 256.126 64Z" fill="white"/>
<path d="M207.627 132.734V124.367C207.627 105.172 192.066 89.611 172.871 89.611C153.676 89.611 138.115 105.172 138.115 124.367V132.734H162.073C177.076 132.734 191.798 128.661 204.667 120.949" fill="#F5B955"/>
<path d="M207.627 125.904V147.496C207.627 166.691 192.066 182.252 172.871 182.252C153.676 182.252 138.115 166.691 138.115 147.496V125.904" fill="#FFCDAC"/>
<path d="M304.5 132.785V124.418C304.5 105.223 320.061 89.662 339.256 89.662C358.451 89.662 374.012 105.223 374.012 124.418V132.785H350.054C335.051 132.785 320.329 128.712 307.46 121" fill="#007A34"/>
<path d="M304.5 125.955V147.547C304.5 166.742 320.061 182.303 339.256 182.303C358.451 182.303 374.012 166.742 374.012 147.547V125.955" fill="#FFCDAC"/>
<path d="M94.7791 475.004C91.5831 470.5 85.3401 469.441 80.8361 472.638C76.3331 475.835 75.2731 482.077 78.4711 486.581L93.5261 507.788C95.4761 510.535 98.5581 512 101.689 512C103.691 512 105.712 511.4 107.469 510.153C111.972 506.956 113.032 500.714 109.834 496.21L94.7791 475.004Z" fill="black"/>
<path d="M208.822 421.858C200.855 383.886 178.735 351.052 146.539 329.403L111.558 305.881C97.531 296.451 78.677 298.479 66.953 310.434V189.938C66.953 174.122 56.17 160.684 40.73 157.257C30.765 155.043 20.487 157.441 12.526 163.828C4.56598 170.215 0.000976562 179.732 0.000976562 189.938V344.99C0.000976562 365.303 6.21698 384.796 17.976 401.361L35.809 426.482C37.759 429.229 40.841 430.694 43.972 430.694C45.974 430.694 47.995 430.094 49.752 428.847C54.255 425.65 55.315 419.408 52.117 414.904L34.284 389.783C24.94 376.62 20.001 361.131 20.001 344.989V189.938C20.001 185.83 21.839 181.999 25.043 179.427C28.246 176.856 32.383 175.891 36.397 176.782C42.612 178.161 46.953 183.571 46.953 189.938V312.954C46.953 330.368 53.351 346.959 64.974 359.867C65.472 360.464 65.984 361.055 66.525 361.628C73.166 368.665 80.974 376.957 88.328 384.773L98.623 395.73C98.656 395.765 98.692 395.795 98.726 395.829C107.533 405.196 114.028 412.113 114.164 412.257C117.943 416.282 124.273 416.482 128.299 412.701C132.325 408.92 132.524 402.592 128.742 398.566C128.56 398.372 116.854 385.907 103.486 371.698L80.557 347.295C80.499 347.233 80.446 347.168 80.388 347.106C75.012 340.676 75.079 331.353 80.714 324.991C85.699 319.365 94.163 318.285 100.4 322.478L135.379 346C163.227 364.725 182.358 393.123 189.248 425.965L205.633 504.054C206.622 508.767 210.779 512.002 215.41 512.002C216.09 512.002 216.781 511.932 217.473 511.787C222.878 510.653 226.34 505.351 225.206 499.946L208.822 421.858Z" fill="black"/>
<path d="M74.025 445.768C70.815 441.272 64.571 440.228 60.076 443.436C55.581 446.644 54.537 452.889 57.744 457.384L57.808 457.474C59.76 460.209 62.835 461.667 65.957 461.667C67.967 461.667 69.996 461.063 71.757 459.806C76.252 456.598 77.296 450.353 74.089 445.858L74.025 445.768Z" fill="black"/>
<path d="M499.475 163.829C491.515 157.442 481.232 155.048 471.272 157.258C455.832 160.684 445.048 174.123 445.048 189.939V310.435C433.325 298.48 414.469 296.452 400.443 305.882L365.462 329.403C333.265 351.051 311.146 383.886 303.179 421.858L286.795 499.947C285.661 505.352 289.123 510.653 294.528 511.787C295.22 511.932 295.912 512.002 296.591 512.002C301.223 512.002 305.379 508.766 306.368 504.053L322.752 425.964C329.643 393.123 348.773 364.724 376.621 346L411.602 322.479C417.837 318.285 426.301 319.365 431.288 324.991C436.916 331.345 436.991 340.653 431.635 347.083C431.571 347.153 431.51 347.225 431.446 347.295C431.446 347.295 383.441 398.374 383.26 398.566C379.479 402.592 379.678 408.92 383.703 412.701C387.729 416.482 394.057 416.283 397.838 412.257C397.974 412.113 438.836 368.666 445.477 361.629C446.018 361.056 446.53 360.465 447.028 359.868C458.65 346.96 465.049 330.369 465.049 312.955V189.938C465.049 183.571 469.39 178.161 475.606 176.782C479.619 175.892 483.755 176.857 486.96 179.427C490.164 181.998 492.002 185.829 492.002 189.938V344.99C492.002 361.132 487.063 376.621 477.719 389.784L402.168 496.211C398.971 500.714 400.03 506.957 404.533 510.154C406.291 511.401 408.311 512.001 410.313 512.001C413.443 512.001 416.526 510.535 418.476 507.789L494.027 401.362C505.786 384.797 512.002 365.304 512.002 344.991V189.938C511.999 179.732 507.435 170.216 499.475 163.829Z" fill="black"/>
<path d="M352.777 315.667C358.299 315.667 362.777 311.19 362.777 305.667V269.738C362.777 268.499 362.727 267.271 362.655 266.048H408.737C414.259 266.048 418.737 261.571 418.737 256.048V237.372C418.737 215.532 403.901 196.734 382.658 191.66L364.867 187.41V184.22C376.43 176.12 384.012 162.707 384.012 147.549V124.42C384.012 99.741 363.935 79.664 339.256 79.664C328.181 79.664 318.041 83.716 310.218 90.404C301.508 69.074 280.549 54 256.126 54C231.672 54 210.692 69.113 202.002 90.484C194.167 83.748 183.99 79.662 172.87 79.662C148.191 79.662 128.114 99.739 128.114 124.418V125.955V147.547C128.114 162.705 135.696 176.118 147.259 184.218V187.408L129.468 191.658C108.226 196.733 93.3899 215.53 93.3899 237.37V256.046C93.3899 261.569 97.8679 266.046 103.39 266.046H149.342C149.271 267.259 149.222 268.478 149.222 269.707V305.665C149.222 311.188 153.7 315.665 159.222 315.665H219.332C224.854 315.665 229.332 311.188 229.332 305.665C229.332 300.142 224.854 295.665 219.332 295.665H209V275C209 269.477 204.522 265 199 265C193.478 265 189 269.477 189 275V295.667H169.223V269.709C169.223 250.422 182.323 233.813 201.077 229.319L228.519 222.743L246.884 264.525C248.48 268.156 252.072 270.501 256.037 270.501H256.038C260.004 270.501 263.596 268.157 265.192 264.526L283.538 222.806L310.893 229.341C329.665 233.826 342.776 250.437 342.776 269.738V295.667H322.999V275C322.999 269.477 318.521 265 312.999 265C307.477 265 302.999 269.477 302.999 275V295.667H291.666C286.144 295.667 281.666 300.144 281.666 305.667C281.666 311.19 286.144 315.667 291.666 315.667H352.777ZM224.312 194.345C221.743 193.212 219.065 192.306 216.305 191.645L198.441 187.364V184.248C201.665 181.995 204.58 179.332 207.108 176.33C211.574 183.21 217.442 189.093 224.312 193.574V194.345ZM148.115 147.547V142.784H162.072C174.315 142.784 186.395 140.357 197.627 135.703V147.546C197.627 161.196 186.522 172.302 172.871 172.302C159.22 172.302 148.115 161.198 148.115 147.547ZM217.717 144.625V134.063H231.386C247.244 134.063 262.322 128.166 273.878 117.648L294.5 129.764V146.088C293.727 166.591 276.816 183.035 256.127 183.035C234.947 183.036 217.717 165.805 217.717 144.625ZM287.743 194.377V193.7C294.669 189.222 300.589 183.324 305.09 176.414C307.601 179.382 310.491 182.016 313.684 184.248V187.364L295.819 191.645C293.035 192.313 290.333 193.23 287.743 194.377ZM314.5 147.547V146.087C314.512 145.6 314.537 145.115 314.537 144.625V135.719C325.758 140.363 337.825 142.785 350.055 142.785H364.012V147.548C364.012 161.198 352.907 172.304 339.256 172.304C325.605 172.304 314.5 161.198 314.5 147.547ZM339.255 99.662C352.357 99.662 363.113 109.893 363.957 122.785H350.054C338.366 122.785 326.864 119.971 316.525 114.613C320.329 105.825 329.087 99.662 339.255 99.662ZM217.717 112.41C217.717 91.231 234.947 74 256.127 74C275.23 74 291.119 88.018 294.053 106.306L277.218 96.415C273.007 93.941 267.625 94.87 264.488 98.615C256.261 108.433 244.196 114.064 231.386 114.064H217.717V112.41ZM172.871 99.662C183.04 99.662 191.797 105.826 195.601 114.612C185.261 119.97 173.76 122.784 162.072 122.784H148.169C149.013 109.893 159.77 99.662 172.871 99.662ZM196.417 209.869C176.743 214.583 161.281 228.3 153.922 246.047H113.39V237.371C113.39 224.825 121.912 214.026 134.115 211.111L159.583 205.027C164.084 203.952 167.26 199.929 167.26 195.301V191.939C169.1 192.17 170.97 192.303 172.871 192.303C174.758 192.303 176.615 192.172 178.441 191.944V194.797C178.434 194.946 178.431 195.095 178.43 195.244C178.428 198.525 180.041 201.739 183.003 203.655C184.119 204.378 185.325 204.848 186.556 205.083L201.473 208.657L196.417 209.869ZM256.04 235.653L244.311 208.97V201.834C248.128 202.621 252.079 203.036 256.125 203.036C260.102 203.036 263.986 202.633 267.742 201.872V209.038L256.04 235.653ZM315.54 209.888L310.519 208.689L325.516 205.095C326.764 204.863 327.99 204.387 329.121 203.655C332.078 201.742 333.686 198.528 333.686 195.247C333.686 195.169 333.685 195.09 333.683 195.012V191.944C335.51 192.172 337.366 192.303 339.253 192.303C341.154 192.303 343.024 192.17 344.864 191.939V195.301C344.864 199.929 348.04 203.952 352.541 205.027L378.009 211.111C390.212 214.027 398.735 224.825 398.735 237.371V246.047H358.065C350.699 228.3 335.227 214.591 315.54 209.888Z" fill="black"/>
<path d="M256 295.67C253.359 295.67 250.79 296.73 248.93 298.59C247.06 300.46 246 303.03 246 305.67C246 308.3 247.06 310.87 248.93 312.74C250.79 314.6 253.36 315.67 256 315.67C258.63 315.67 261.2 314.6 263.069 312.74C264.929 310.87 266 308.3 266 305.67C266 303.03 264.93 300.46 263.069 298.59C261.199 296.73 258.63 295.67 256 295.67Z" fill="black"/>
<path d="M255.994 34.963C261.516 34.963 265.994 30.486 265.994 24.963V10C265.994 4.477 261.516 0 255.994 0C250.472 0 245.994 4.477 245.994 10V24.963C245.994 30.486 250.472 34.963 255.994 34.963Z" fill="black"/>
<path d="M205.023 46.767C206.975 48.718 209.533 49.693 212.09 49.693C214.651 49.693 217.211 48.715 219.164 46.761C223.067 42.854 223.064 36.522 219.157 32.619L208.667 22.139C204.76 18.235 198.429 18.238 194.525 22.145C190.621 26.052 190.625 32.384 194.532 36.287L205.023 46.767Z" fill="black"/>
<path d="M299.746 49.889C302.307 49.889 304.868 48.911 306.82 46.956L317.229 36.537C321.132 32.63 321.129 26.298 317.222 22.395C313.315 18.492 306.982 18.494 303.08 22.402L292.671 32.821C288.768 36.728 288.771 43.06 292.678 46.963C294.63 48.914 297.188 49.889 299.746 49.889Z" fill="black"/>
</g>
<defs>
<clipPath id="clip0">
<rect width="512.002" height="512.002" fill="white"/>
</clipPath>
</defs>
</svg>
