<svg width="496" height="512" viewBox="0 0 496 512" fill="none" xmlns="http://www.w3.org/2000/svg">
<path fill-rule="evenodd" clip-rule="evenodd" d="M97.343 202.577C85.38 246.898 111.613 292.529 155.933 304.492C195.325 315.116 235.714 295.605 252.633 260.029C263.371 226.276 259.327 207.79 253.003 189.902C252.832 189.104 252.291 187.737 252.205 187.595C246.167 175.29 237.137 164.552 225.773 156.462C217.969 150.908 209.053 146.635 199.255 143.986C191.28 141.821 183.276 140.91 175.415 141.109C139.612 142.049 107.141 166.232 97.343 202.577V202.577Z" fill="#FFE07D"/>
<path fill-rule="evenodd" clip-rule="evenodd" d="M321.448 211.749C341.671 197.593 367.277 193.833 386.817 162.13C395.049 148.8 405.73 140.026 421.965 131.396L419.829 76.515L379.013 50.644C336.801 73.061 331.646 79.356 285.759 84.825C244.231 89.781 204.069 87.93 181.938 129.032L175.415 141.109C173.898 157.745 185.701 161.561 193.676 163.726C203.474 166.375 212.613 166.218 225.773 156.462C231.213 147.091 237.252 134.074 273.966 140.198C287.723 142.505 293.334 148.601 285.046 158.342L253.003 189.902L246.737 196.083C232.923 209.67 225.004 237.128 231.328 249.006C236.398 258.52 244.459 261.055 253.345 258.007C255.567 257.266 257.817 256.156 260.095 254.76L321.448 211.749Z" fill="#FFCDAC"/>
<path fill-rule="evenodd" clip-rule="evenodd" d="M151.119 145.439C183.561 161.874 205.436 192.779 205.436 228.213C205.436 260.086 187.748 288.314 160.604 305.632C198.458 313.579 236.398 294.21 252.633 260.029C252.804 259.716 253.203 258.32 253.345 258.007C244.458 261.055 236.398 258.52 231.328 249.006C225.005 237.128 232.923 209.67 246.737 196.083L253.003 189.902C252.832 189.104 252.291 187.737 252.205 187.595C246.167 175.318 237.137 164.552 225.773 156.462C217.969 150.908 209.053 146.635 199.255 143.986C191.28 141.821 183.276 140.91 175.415 141.109C167.041 141.337 158.867 142.818 151.119 145.439V145.439Z" fill="#FFD064"/>
<path fill-rule="evenodd" clip-rule="evenodd" d="M311.365 192.807L250.012 235.789C247.733 237.213 245.483 238.296 243.262 239.065C238.135 240.803 233.293 240.689 229.134 238.467C229.162 242.597 229.846 246.215 231.327 249.006C236.397 258.52 244.458 261.055 253.344 258.007C255.566 257.266 257.816 256.156 260.094 254.76L321.447 211.749C341.67 197.593 367.276 193.833 386.816 162.13C395.048 148.8 405.729 140.026 421.964 131.396L411.881 112.426C395.646 121.057 384.964 129.858 376.733 143.16C357.194 174.863 331.588 178.622 311.365 192.807V192.807Z" fill="#F1D0A5"/>
<path fill-rule="evenodd" clip-rule="evenodd" d="M379.012 50.644L411.882 112.426L421.965 131.396L429.912 146.35C433.159 152.446 440.793 154.781 446.916 151.534L481.722 133.019C487.846 129.772 490.182 122.11 486.934 116.014L432.817 14.214C429.57 8.11796 421.908 5.78296 415.813 9.02996L380.978 27.545C374.883 30.792 372.547 38.454 375.794 44.55L379.012 50.644Z" fill="#007A34"/>
<path fill-rule="evenodd" clip-rule="evenodd" d="M472.34 113.605L437.425 132.177C431.282 135.434 423.625 133.091 420.367 126.977L422.51 131.006L430.482 146.007C433.739 152.122 441.397 154.465 447.54 151.207L482.455 132.635C488.598 129.378 490.941 121.692 487.684 115.577L477.598 96.605C480.797 102.719 478.454 110.376 472.34 113.605V113.605Z" fill="#ECAE1E"/>
<path fill-rule="evenodd" clip-rule="evenodd" d="M273.255 441.073L347.852 430.733L386.76 398.86C389.637 397.749 392.542 396.695 395.447 395.613C404.789 392.309 409.746 381.941 406.441 372.598C403.108 363.227 392.741 358.299 382.999 361.746L339.705 377.896L261.291 407.12C258.671 422.302 261.748 441.101 273.255 441.073V441.073Z" fill="#F1D0A5"/>
<path fill-rule="evenodd" clip-rule="evenodd" d="M208.199 388.833L244.942 384.361L256.734 370.717C265.137 367.441 269.494 357.956 266.475 349.383C263.37 340.638 253.686 336.024 244.572 339.271L157.784 371.429L166.3 388.035L208.199 388.833Z" fill="#F1D0A5"/>
<path fill-rule="evenodd" clip-rule="evenodd" d="M261.292 407.12L312.476 396.239L339.706 377.895C346.684 373.508 349.988 364.678 347.14 356.589C343.807 347.218 333.468 342.29 323.698 345.765L256.734 370.717C256.563 370.802 256.364 370.859 256.193 370.916L208.199 388.832L222.697 409.426L261.292 407.12Z" fill="#F1D0A5"/>
<path fill-rule="evenodd" clip-rule="evenodd" d="M208.199 388.833L256.193 370.917L256.734 370.718C265.137 367.442 269.494 357.957 266.475 349.384C265.079 345.453 262.345 342.348 258.955 340.44C259.525 347.675 255.309 354.767 248.302 357.502L247.761 357.701L188.117 381.912L208.199 388.833Z" fill="#E5C093"/>
<path fill-rule="evenodd" clip-rule="evenodd" d="M261.292 407.12L339.706 377.896C346.684 373.509 349.988 364.679 347.14 356.59C344.548 349.27 337.627 344.655 330.079 344.655C330.734 345.709 331.304 346.877 331.731 348.102C334.579 356.191 332.642 359.609 325.664 363.996L234.746 397.977L261.292 407.12Z" fill="#E5C093"/>
<path fill-rule="evenodd" clip-rule="evenodd" d="M273.255 441.073C311.28 426.945 349.305 412.447 387.415 398.604L395.447 395.613C404.789 392.309 409.746 381.941 406.441 372.598C404.504 367.129 400.175 363.17 394.962 361.518C397.582 370.576 392.342 378.124 383.312 381.314C347.366 394.673 311.392 408.772 275.446 422.131C275.588 422.644 275.731 423.128 275.845 423.641C276.728 427.714 276.614 431.873 275.532 435.69C274.992 437.569 274.252 439.392 273.255 441.073Z" fill="#E5C093"/>
<path fill-rule="evenodd" clip-rule="evenodd" d="M141.122 487.445L186.467 501.003C202.56 505.788 229.875 505.56 245.598 500.69C268.926 493.484 306.096 479.27 319.825 473.687L410.259 436.886C421.624 432.243 423.988 416.577 417.522 406.123C411.199 395.84 398.723 394.502 387.415 398.603L386.76 398.859L273.255 441.072C280.233 429.137 275.42 411.449 261.292 407.119L157.784 371.429C132.235 362.627 124.373 350.636 72.392 370.062L41.146 425.663L72.392 476.279C99.793 476.706 112.468 478.871 141.122 487.445Z" fill="#FFCDAC"/>
<path fill-rule="evenodd" clip-rule="evenodd" d="M72.3918 476.279C99.7928 476.706 112.468 478.871 141.122 487.445L186.467 501.003C202.56 505.788 229.875 505.56 245.598 500.69C268.926 493.484 306.096 479.27 319.825 473.687L410.259 436.886C421.624 432.243 423.988 416.577 417.522 406.123C417.437 405.981 417.351 405.838 417.266 405.696C415.529 408.089 413.193 409.997 410.259 411.193L319.825 448.023C306.096 453.606 268.926 467.819 245.598 475.026C229.875 479.897 202.56 480.125 186.467 475.311L141.122 461.781C112.468 453.207 99.7928 451.043 72.3918 450.615V453.264V470.611V476.279Z" fill="#F1D0A5"/>
<path fill-rule="evenodd" clip-rule="evenodd" d="M72.392 470.611V371.573V363.256C72.392 356.334 66.724 350.638 59.774 350.638H20.211C13.261 350.638 7.59302 356.306 7.59302 363.256V478.929C7.59302 485.879 13.261 491.547 20.211 491.547H59.774C66.695 491.547 72.392 485.879 72.392 478.929V470.611Z" fill="#ECEAED"/>
<path fill-rule="evenodd" clip-rule="evenodd" d="M20.211 491.546H59.774C66.695 491.546 72.392 485.878 72.392 478.928V476.279V470.611V453.264V450.615C72.392 457.537 66.695 463.233 59.774 463.233H20.211C13.29 463.233 7.59302 457.565 7.59302 450.643V478.927C7.59302 485.878 13.261 491.546 20.211 491.546V491.546Z" fill="#DAD8DB"/>
<path d="M411.586 391.392C415.192 385.133 416.156 377.398 413.562 370.065C408.832 356.767 393.992 349.839 380.479 354.62C380.439 354.634 380.4 354.648 380.36 354.663L355.636 363.88C355.815 360.607 355.393 357.272 354.261 354.056C351.959 347.581 347.258 342.415 341.027 339.509C334.807 336.608 327.752 336.3 321.166 338.644C321.13 338.657 321.094 338.67 321.059 338.683L274.985 355.863C275.096 352.835 274.64 349.787 273.598 346.853C271.429 340.745 267.004 335.845 261.137 333.057C255.157 330.214 248.373 329.894 241.948 332.184L157.746 363.384C154.497 362.186 151.49 360.94 148.574 359.725C129.661 351.842 115.6 347.48 79.5859 359.5C77.8199 350.165 69.6159 343.078 59.7749 343.078H20.2109C9.08591 343.078 0.0349121 352.129 0.0349121 363.254V401.48C0.0349121 405.654 3.41791 409.038 7.59191 409.038C11.7659 409.038 15.1489 405.654 15.1489 401.48V363.254C15.1489 360.464 17.4199 358.193 20.2109 358.193H59.7739C62.5169 358.193 64.8349 360.51 64.8349 363.254V478.927C64.8349 481.671 62.5169 483.988 59.7739 483.988H20.2109C17.4209 483.988 15.1489 481.718 15.1489 478.927V436.258C15.1489 432.084 11.7659 428.7 7.59191 428.7C3.41791 428.7 0.0349121 432.084 0.0349121 436.258V478.927C0.0349121 490.052 9.08591 499.103 20.2109 499.103H59.7739C69.1469 499.103 77.0229 492.669 79.2789 483.993C101.013 484.662 113.154 486.964 138.957 494.685L184.313 508.247C192.744 510.754 203.991 512 215.294 512C227.139 512 239.047 510.631 247.829 507.91C271.062 500.733 308.038 486.638 322.674 480.687L413.116 443.882C419.792 441.154 424.776 435.638 427.147 428.349C429.913 419.848 428.688 409.808 423.957 402.161C420.913 397.217 416.643 393.595 411.586 391.392V391.392ZM341.795 385.173C342.135 385.073 342.471 384.948 342.8 384.798L385.574 368.851C391.322 366.847 397.352 369.597 399.317 375.117C401.242 380.562 398.376 386.56 392.928 388.487C392.89 388.501 392.851 388.515 392.813 388.529L283.969 429.023C283.965 426.668 283.722 424.285 283.195 421.913C282.129 417.109 280.058 412.813 277.211 409.251L341.795 385.173ZM326.279 352.87C329.087 351.885 332.054 352.005 334.64 353.21C337.174 354.391 339.084 356.491 340.012 359.099C341.551 363.47 339.978 368.394 336.275 371.099L261.192 399.091L230.605 388.544L326.279 352.87ZM247.109 346.391C249.639 345.49 252.316 345.601 254.648 346.71C256.865 347.764 258.537 349.611 259.354 351.912C260.177 354.232 260.037 356.751 258.96 359.005C257.88 361.265 256 362.966 253.665 363.794C253.495 363.855 253.333 363.928 253.169 363.999L208.129 380.794L180.227 371.173L247.109 346.391ZM412.773 423.673C412.085 425.789 410.594 428.585 407.409 429.886L316.978 466.687C302.556 472.552 266.158 486.429 243.361 493.471C228.827 497.975 203.248 498.108 188.631 493.763L143.288 480.205C116.317 472.135 102.924 469.617 79.9479 468.894V375.36C116.045 362.567 126.821 367.037 142.757 373.679C146.625 375.291 258.828 414.266 258.828 414.266C258.908 414.294 258.989 414.32 259.07 414.345C265.812 416.418 267.867 422.62 268.437 425.19C269.393 429.497 268.736 433.817 266.736 437.25C266.717 437.282 266.699 437.316 266.681 437.348C265.963 438.559 265.08 439.659 264.036 440.604C258.368 445.728 248.374 446.28 235.887 442.157L172.085 421.107C168.123 419.798 163.848 421.953 162.54 425.916C161.233 429.88 163.386 434.153 167.35 435.461L231.15 456.51C238.736 459.015 245.24 459.991 250.772 459.991C262.822 459.991 270.254 455.359 274.174 451.815C275.689 450.445 277.04 448.926 278.221 447.289L389.138 406.024C389.242 405.989 389.347 405.962 389.45 405.923C396.914 403.077 406.521 402.676 411.092 410.1C413.52 414.022 414.179 419.35 412.773 423.673V423.673Z" fill="black"/>
<path d="M493.607 112.467L439.494 10.702C436.978 5.95497 432.751 2.47197 427.593 0.893972C422.442 -0.682028 416.994 -0.162028 412.266 2.35597L377.424 20.874C367.821 25.991 364.076 37.826 368.847 47.513C365.113 49.526 361.687 51.396 358.535 53.116C330.757 68.275 322.374 72.85 284.865 77.32C280.72 77.814 277.761 81.574 278.255 85.719C278.713 89.56 281.975 92.383 285.75 92.383C286.049 92.383 286.35 92.365 286.654 92.329C327.056 87.514 337.599 81.76 365.775 66.384C368.88 64.69 372.25 62.851 375.914 60.875L411.82 128.416C397.302 137 387.931 145.941 380.385 158.164C367.772 178.628 352.229 186.508 337.198 194.129C330.496 197.527 323.567 201.04 317.111 205.559L255.934 248.447C254.299 249.453 252.708 250.227 251.197 250.767C251.068 250.805 250.939 250.845 250.812 250.891C248.388 251.698 246.179 251.89 244.353 251.4C241.886 250.739 239.747 248.737 238 245.453C233.644 237.271 240.17 213.143 252.042 201.465L290.351 163.724C290.509 163.569 290.66 163.406 290.803 163.238C297.375 155.514 297.064 149.26 295.646 145.373C293.272 138.867 286.4 134.618 275.213 132.742C243.367 127.417 231.033 135.434 223.441 145.963C216.536 141.925 209.096 138.816 201.236 136.691C196.811 135.49 192.314 134.636 187.781 134.117L188.593 132.613C202.223 107.299 222.772 99.877 251.51 96.105C255.649 95.562 258.563 91.767 258.02 87.629C257.476 83.49 253.678 80.576 249.543 81.119C221.381 84.815 192.894 92.743 175.288 125.441L170.779 133.795C153.19 135.146 136.018 141.729 121.999 152.591C106.28 164.769 95.2319 181.374 90.0469 200.607C77.0169 248.882 105.69 298.758 153.965 311.788C161.853 313.915 169.809 314.938 177.659 314.937C211.748 314.936 243.798 295.648 259.195 263.806C260.823 263.062 262.458 262.192 264.095 261.172C264.21 261.1 264.323 261.025 264.435 260.947L325.784 217.939C331.358 214.037 337.515 210.915 344.034 207.61C360.145 199.441 378.406 190.183 393.249 166.099C399.303 156.295 407.003 148.949 418.93 141.787L423.244 149.901C426.857 156.682 433.836 160.553 441.047 160.552C444.232 160.552 447.463 159.796 450.467 158.204L485.265 139.694C490.011 137.177 493.494 132.95 495.072 127.792C496.647 122.642 496.127 117.199 493.607 112.467V112.467ZM272.717 147.651C278.286 148.585 280.509 149.92 281.244 150.494C281.059 150.968 280.603 151.862 279.489 153.208L255.124 177.211C249.953 168.686 243.391 161.045 235.758 154.649C240.362 148.333 248.214 143.553 272.717 147.651ZM157.902 297.196C117.675 286.338 93.7809 244.775 104.641 204.544C113.275 172.513 142.461 149.534 175.607 148.664C182.917 148.481 190.202 149.359 197.284 151.281C206.034 153.647 214.146 157.461 221.392 162.619C230.747 169.277 238.509 178.072 243.995 188.177L241.439 190.695C226.66 205.231 215.878 236.066 224.658 252.558C229.386 261.439 235.848 264.77 240.437 266.001C240.484 266.014 240.533 266.022 240.58 266.034C222.879 292.801 189.706 305.774 157.902 297.196V297.196ZM480.617 123.374C480.222 124.666 479.357 125.72 478.174 126.348L443.376 144.858C440.928 146.157 437.88 145.232 436.585 142.803L382.464 40.995C381.187 38.597 382.134 35.491 384.525 34.217L419.366 15.7C420.086 15.317 420.875 15.122 421.678 15.122C422.175 15.122 422.678 15.197 423.172 15.348C424.464 15.743 425.518 16.608 426.145 17.79L480.263 119.563C480.264 119.565 480.265 119.566 480.266 119.568C480.885 120.734 481.01 122.085 480.617 123.374V123.374Z" fill="black"/>
</svg>
