<svg width="346" height="346" viewBox="0 0 346 346" fill="none" xmlns="http://www.w3.org/2000/svg">
<path d="M191.568 327.129C191.568 317.145 183.456 308.409 172.848 308.409C123.552 308.409 77.376 281.577 53.664 237.897C43.056 217.929 36.816 195.465 36.816 173.001C36.816 148.041 43.68 123.705 56.784 102.489C62.4 93.7529 59.28 82.5209 50.544 76.9049C41.808 71.2889 30.576 74.4089 24.96 83.1449C8.736 109.977 0 141.177 0 173.001C0 201.705 7.48801 230.409 21.216 255.993C51.792 311.529 109.824 345.849 172.848 345.849C182.832 345.849 191.568 337.113 191.568 327.129Z" fill="#ECAE1E"/>
<path d="M154.126 18.873C154.126 28.857 162.238 37.593 172.846 37.593C220.27 37.593 263.95 61.929 288.91 102.489C302.014 123.705 308.878 148.041 308.878 173.001C308.878 195.465 303.262 218.553 292.03 237.897C287.038 246.633 290.158 257.865 299.518 262.857C302.638 264.105 305.134 265.353 308.254 265.353C314.494 265.353 321.358 261.609 324.478 255.993C338.206 231.033 345.694 202.329 345.694 173.001C345.694 141.177 336.958 109.977 320.734 83.1449C288.91 31.3529 233.374 0.152954 172.846 0.152954C162.862 0.152954 154.126 8.88895 154.126 18.873V18.873Z" fill="#ECAE1E"/>
</svg>
