<svg width="532" height="532" viewBox="0 0 532 532" fill="none" xmlns="http://www.w3.org/2000/svg">
<path d="M531.198 266C531.198 310.928 519.342 355.856 497.502 395.168C450.702 479.408 362.094 531.2 265.998 531.2C256.014 531.2 247.278 523.088 247.278 512.48C247.278 502.496 255.39 493.76 265.998 493.76C348.366 493.76 425.118 448.832 465.054 377.072C483.774 343.376 493.758 304.688 493.758 266C493.758 224.816 482.526 184.256 461.31 149.312C456.318 140.576 458.814 129.344 467.55 123.728C476.286 118.736 487.518 121.232 493.134 129.968C518.094 171.152 531.198 217.952 531.198 266V266Z" fill="#007A34"/>
<path d="M70.0628 149.312C111.247 80.6723 186.127 38.2403 265.999 38.2403C275.983 38.2403 284.719 30.1283 284.719 19.5203C284.719 8.91229 276.607 0.800293 265.999 0.800293C173.023 0.800293 85.6628 50.0963 38.2388 129.968C13.9028 171.152 0.798828 217.952 0.798828 266C0.798828 310.928 12.6548 355.856 34.4948 395.168C37.6148 401.408 44.4788 404.528 50.7188 404.528C53.8388 404.528 56.9588 403.904 59.4548 402.032C68.1908 397.04 71.3108 385.808 66.3188 377.072C47.5988 343.376 37.6148 304.688 37.6148 266C37.6148 224.816 48.8468 184.256 70.0628 149.312Z" fill="#007A34"/>
</svg>
