<svg width="512" height="512" viewBox="0 0 512 512" fill="none" xmlns="http://www.w3.org/2000/svg">
<path d="M37.747 439.416C37.747 420.063 53.4352 404.375 72.7877 404.375H504.288V374.34H72.7877C36.848 374.34 7.71216 403.475 7.71216 439.416C7.71216 475.356 36.847 504.491 72.7877 504.491H504.288V474.456H72.7877C53.4352 474.456 37.747 458.768 37.747 439.416Z" fill="#007A34"/>
<path d="M488.27 404.375H72.7877C53.4353 404.375 37.7471 420.063 37.7471 439.416C37.7471 458.768 53.4353 474.456 72.7877 474.456H488.27V404.375Z" fill="white"/>
<path d="M41.124 424.398C38.9615 428.951 37.7471 434.041 37.7471 439.416C37.7471 458.768 53.4353 474.456 72.7877 474.456H488.27V444.422H72.7877C58.8105 444.422 46.7475 436.235 41.124 424.398V424.398Z" fill="#E4E8ED"/>
<path d="M85.8027 324.282C85.8027 313.223 94.7671 304.259 105.826 304.259H456.232V274.224H105.826C78.1798 274.224 55.7678 296.636 55.7678 324.282C55.7678 351.928 78.1798 374.34 105.826 374.34H456.232V344.305H105.826C94.7671 344.305 85.8027 335.34 85.8027 324.282V324.282Z" fill="#ECAE1E"/>
<path d="M440.214 304.259H105.826C94.7671 304.259 85.8027 313.223 85.8027 324.282C85.8027 335.341 94.7671 344.305 105.826 344.305H440.214V304.259Z" fill="white"/>
<path d="M366.128 68.986V219.16C366.128 219.16 336.093 239.183 256 239.183C175.907 239.183 145.873 219.16 145.873 219.16V68.986H366.128Z" fill="#616161"/>
<path d="M145.873 189.125V219.16C145.873 219.16 175.907 239.184 256 239.184C336.093 239.184 366.128 219.16 366.128 219.16V189.125C366.128 189.125 336.093 209.149 256 209.149C175.907 209.149 145.873 189.125 145.873 189.125V189.125Z" fill="#424242"/>
<path d="M446.221 209.149H406.174V179.114C406.174 168.055 415.139 159.091 426.198 159.091C437.256 159.091 446.221 168.055 446.221 179.114V209.149Z" fill="#616161"/>
<path d="M436.209 67.9849L256 128.055L75.791 67.9849L256 7.91519L436.209 67.9849Z" fill="#616161"/>
<path d="M388.152 51.9663L256 96.0174L123.847 51.9663L75.791 67.9849L256 128.055L436.209 67.9849L388.152 51.9663Z" fill="#424242"/>
<path d="M87.8049 436.913H102.822V451.93H87.8049V436.913Z" fill="white"/>
<path d="M296.046 190.627H311.064V205.645H296.046V190.627Z" fill="white"/>
<path d="M511.797 411.884V366.832H463.741V336.797H447.723V311.768H463.741V266.715H343.959V281.733H448.724V296.75H138.005V311.768H432.704V336.797H105.825C98.9239 336.797 93.3104 331.183 93.3104 324.282C93.3104 317.381 98.9239 311.768 105.825 311.768H122.988V296.75H105.825C90.6443 296.75 78.293 309.101 78.293 324.282C78.293 339.464 90.6443 351.814 105.825 351.814H448.723V366.832H189.922V381.849H496.778V396.866H72.7866C49.3244 396.866 30.2372 415.954 30.2372 439.416C30.2372 462.878 49.3244 481.965 72.7866 481.965H426.482V466.948H72.7876C57.606 466.948 45.2556 454.597 45.2556 439.416C45.2556 424.234 57.606 411.884 72.7876 411.884H480.761V436.913H147.875V451.93H480.761V466.948H441.5V481.965H496.779V496.983H72.7876C41.0448 496.983 15.2208 471.159 15.2208 439.416C15.2208 407.673 41.0448 381.849 72.7876 381.849H174.906V366.832H105.826C82.3637 366.832 63.2765 347.744 63.2765 324.282C63.2765 300.82 82.3637 281.733 105.826 281.733H328.942V266.715H105.826C74.0831 266.715 48.2591 292.539 48.2591 324.282C48.2591 341.244 55.6367 356.512 67.3473 367.057C29.8578 369.851 0.203369 401.224 0.203369 439.416C0.203369 479.439 32.7641 512 72.7876 512H511.797V466.948H495.778V411.884H511.797Z" fill="black"/>
<path d="M117.84 436.913H132.857V451.93H117.84V436.913Z" fill="black"/>
<path d="M138.364 223.178L141.708 225.407C143.011 226.277 174.57 246.692 256 246.692C337.431 246.692 368.989 226.277 370.293 225.407L373.637 223.178V96.7572L418.689 81.7398V152.631C407.148 155.909 398.666 166.536 398.666 179.114V216.657H453.73V179.114C453.73 166.536 445.248 155.909 433.706 152.631V76.734L459.954 67.9849L381.096 41.6984L376.347 55.9449L412.465 67.9839L256 120.139L99.5357 67.9849L256 15.8304L362.1 51.1974L366.85 36.9509L256 0L52.0466 67.9849L138.364 96.7572V223.178ZM438.712 179.114V201.64H413.683V179.114C413.683 172.213 419.297 166.599 426.198 166.599C433.099 166.599 438.712 172.213 438.712 179.114ZM153.381 101.763L256 135.97L358.619 101.763V160.592H340.098V175.61H358.619V190.627H326.082V205.645H358.619V214.697C348.942 219.41 317.807 231.675 256 231.675C194.146 231.675 163.01 219.391 153.381 214.701V101.763Z" fill="black"/>
</svg>
