<svg width="512" height="512" viewBox="0 0 512 512" fill="none" xmlns="http://www.w3.org/2000/svg">
<g clip-path="url(#clip0)">
<path d="M499.923 374.628V434.657C499.923 441.792 494.148 447.566 487.014 447.566H24.9859C17.8519 447.566 12.0769 441.791 12.0769 434.657V374.628C12.0769 373.258 12.2899 371.898 12.7269 370.599L78.0939 172.04C79.8289 166.742 84.7719 163.17 90.3539 163.17H421.647C427.229 163.17 432.171 166.742 433.907 172.04L499.274 370.598C499.71 371.898 499.923 373.258 499.923 374.628V374.628Z" fill="#9E9797"/>
<path d="M499.923 374.628V434.657C499.923 441.792 494.148 447.566 487.014 447.566H409.397C409.133 356.056 410.544 205.023 410.96 163.17H421.647C427.229 163.17 432.171 166.742 433.907 172.04L499.274 370.598C499.71 371.898 499.923 373.258 499.923 374.628V374.628Z" fill="#B9ACAC"/>
<path d="M12.074 374.628V434.657C12.074 441.792 17.849 447.566 24.983 447.566H102.6C102.864 356.056 101.453 205.023 101.037 163.17H90.351C84.769 163.17 79.827 166.742 78.091 172.04L12.724 370.599C12.288 371.898 12.074 373.258 12.074 374.628V374.628Z" fill="#B9ACAC"/>
<path d="M450.878 370.594L411.073 249.687C409.33 244.393 404.387 240.816 398.813 240.816H113.186C107.613 240.816 102.669 244.393 100.926 249.687L61.1219 370.594C60.6929 371.897 60.4749 373.259 60.4749 374.63V434.66C60.4749 441.788 66.2539 447.567 73.3819 447.567H438.619C445.747 447.567 451.526 441.788 451.526 434.66V374.63C451.525 373.259 451.307 371.896 450.878 370.594Z" fill="#756F6F"/>
<path d="M256 347.813C308.111 347.813 350.356 335.936 350.356 321.285C350.356 306.634 308.111 294.757 256 294.757C203.889 294.757 161.644 306.634 161.644 321.285C161.644 335.936 203.889 347.813 256 347.813Z" fill="#5B5555"/>
<path d="M451.525 374.633V434.663C451.525 441.788 445.743 447.57 438.618 447.57H393.715C400.84 447.57 406.622 441.788 406.622 434.663V374.633C406.622 373.265 406.403 371.897 405.977 370.593L366.172 249.682C364.43 244.39 359.486 240.815 353.911 240.815H398.814C404.39 240.815 409.333 244.39 411.075 249.682L450.88 370.593C451.306 371.897 451.525 373.265 451.525 374.633V374.633Z" fill="#5B5555"/>
<path d="M499.926 387.088V499.093C499.926 506.221 494.147 512 487.019 512H24.981C17.853 512 12.074 506.221 12.074 499.093V387.088C12.074 379.96 17.853 374.181 24.981 374.181H120.278C125.21 374.181 129.711 376.992 131.876 381.424L150.602 419.766C152.766 424.198 157.267 427.009 162.2 427.009H349.8C354.732 427.009 359.233 424.198 361.398 419.766L380.124 381.424C382.288 376.992 386.789 374.181 391.722 374.181H487.019C494.147 374.181 499.926 379.96 499.926 387.088Z" fill="#BCEA73"/>
<path d="M499.926 387.088V499.093C499.926 506.218 494.144 512 487.019 512H437.872C444.997 512 450.779 506.218 450.779 499.093V387.088C450.779 379.964 444.997 374.181 437.872 374.181H487.019C494.143 374.181 499.926 379.964 499.926 387.088Z" fill="#007A34"/>
<path d="M78.7609 484.49H50.9069C46.7029 484.49 43.2959 481.082 43.2959 476.879C43.2959 472.676 46.7039 469.268 50.9069 469.268H78.7609C82.9649 469.268 86.3719 472.676 86.3719 476.879C86.3719 481.082 82.9649 484.49 78.7609 484.49Z" fill="#F8F3F1"/>
<path d="M78.7609 460.713H50.9069C46.7029 460.713 43.2959 457.305 43.2959 453.101C43.2959 448.897 46.7039 445.49 50.9069 445.49H78.7609C82.9649 445.49 86.3719 448.898 86.3719 453.101C86.3729 457.305 82.9649 460.713 78.7609 460.713Z" fill="#F8F3F1"/>
<path d="M256 324.515C304.776 324.515 344.317 284.974 344.317 236.198C344.317 187.422 304.776 147.881 256 147.881C207.224 147.881 167.683 187.422 167.683 236.198C167.683 284.974 207.224 324.515 256 324.515Z" fill="#A3E440"/>
<path d="M344.316 236.196C344.316 284.975 304.773 324.518 256.005 324.518C250.076 324.518 244.281 323.935 238.677 322.814C279.151 314.755 309.649 279.034 309.649 236.196C309.649 193.358 279.151 157.648 238.677 149.589C244.281 148.468 250.076 147.885 256.005 147.885C304.773 147.885 344.316 187.417 344.316 236.196V236.196Z" fill="#99D53B"/>
<path d="M236.637 247.993C238.384 248.026 240.128 248.659 241.538 249.91C244.964 252.951 249.898 254.761 255.077 254.878C255.1 254.878 255.124 254.879 255.148 254.879C260.3 254.979 265.279 253.393 268.822 250.522C272.087 247.874 276.881 248.376 279.527 251.642C282.174 254.908 281.673 259.701 278.407 262.348C271.998 267.544 263.576 270.288 254.734 270.097C245.877 269.898 237.602 266.772 231.431 261.295C228.288 258.504 228.001 253.693 230.792 250.55C232.333 248.815 234.487 247.951 236.637 247.993V247.993Z" fill="#82B732"/>
<path d="M214.034 235.006C214.02 235.006 214.006 235.006 213.991 235.006C209.787 234.983 206.353 231.557 206.376 227.353C206.399 223.149 209.779 219.809 213.984 219.783H214.075C218.279 219.806 221.668 223.232 221.645 227.436C221.622 231.625 218.218 235.006 214.034 235.006Z" fill="#82B732"/>
<path d="M105.915 80.697C105.915 65.706 118.067 53.554 133.058 53.554C148.049 53.554 160.2 65.706 160.2 80.697C160.2 95.688 148.048 107.84 133.057 107.84C118.066 107.84 105.915 95.688 105.915 80.697" fill="#BCEA73"/>
<path d="M119.291 104.087C129.946 101.631 137.884 92.093 137.884 80.694C137.884 69.307 129.958 59.756 119.303 57.3C123.334 54.918 128.035 53.554 133.059 53.554C148.043 53.554 160.198 65.71 160.198 80.694C160.198 95.69 148.042 107.846 133.059 107.846C128.035 107.846 123.322 106.481 119.291 104.087" fill="#99D53B"/>
<path d="M221.122 2.22999C218.15 -0.743006 213.331 -0.743006 210.358 2.22999L204.205 8.38299L198.052 2.22999C195.08 -0.742006 190.26 -0.742006 187.288 2.22999C184.315 5.20199 184.315 10.022 187.288 12.994L193.441 19.147L187.288 25.3C184.315 28.272 184.315 33.092 187.288 36.064C188.774 37.551 190.722 38.293 192.67 38.293C194.617 38.293 196.566 37.55 198.052 36.064L204.205 29.911L210.358 36.064C211.844 37.55 213.792 38.293 215.74 38.293C217.688 38.293 219.636 37.55 221.122 36.064C224.095 33.092 224.095 28.272 221.122 25.3L214.969 19.147L221.122 12.994C224.095 10.021 224.095 5.20199 221.122 2.22999V2.22999Z" fill="#F5B955"/>
<path d="M387.121 93.8379L393.274 87.6849C396.247 84.7129 396.247 79.8929 393.274 76.9209C390.302 73.9489 385.482 73.9489 382.51 76.9209L376.357 83.0739L370.204 76.9209C367.232 73.9489 362.412 73.9489 359.44 76.9209C356.467 79.8929 356.467 84.7129 359.44 87.6849L365.593 93.8379L359.44 99.9909C356.467 102.963 356.467 107.783 359.44 110.755C360.926 112.241 362.874 112.984 364.822 112.984C366.77 112.984 368.718 112.241 370.204 110.755L376.357 104.602L382.51 110.755C383.996 112.241 385.944 112.984 387.892 112.984C389.84 112.984 391.788 112.241 393.274 110.755C396.247 107.783 396.247 102.963 393.274 99.9909L387.121 93.8379Z" fill="#ECAE1E"/>
<path d="M255.605 109.604C255.597 109.604 255.59 109.604 255.582 109.604C251.378 109.592 247.981 106.173 247.993 101.97L248.06 79.3041C248.072 75.1081 251.478 71.7151 255.671 71.7151H255.694C259.898 71.7271 263.295 75.1461 263.283 79.3491L263.216 102.015C263.204 106.211 259.798 109.604 255.605 109.604V109.604Z" fill="#BCEA73"/>
<path d="M221.81 119.265C219.222 119.265 216.699 117.945 215.273 115.564L203.496 95.9021C201.336 92.2951 202.508 87.6211 206.114 85.4611C209.721 83.3001 214.394 84.4731 216.555 88.0791L228.332 107.741C230.492 111.348 229.32 116.022 225.714 118.182C224.489 118.915 223.141 119.265 221.81 119.265V119.265Z" fill="#BCEA73"/>
<path d="M289.34 119.575C287.995 119.575 286.632 119.218 285.398 118.469C281.805 116.288 280.66 111.606 282.841 108.013L294.735 88.4162C296.916 84.8222 301.597 83.6782 305.191 85.8592C308.784 88.0402 309.929 92.7222 307.748 96.3152L295.854 115.912C294.422 118.271 291.912 119.575 289.34 119.575Z" fill="#BCEA73"/>
<path d="M298.048 235.006C298.034 235.006 298.02 235.006 298.005 235.006C293.801 234.983 290.367 231.556 290.39 227.352C290.413 223.163 293.772 219.782 297.955 219.782H297.998H298.088C302.292 219.805 305.681 223.231 305.658 227.435C305.635 231.625 302.231 235.006 298.048 235.006V235.006Z" fill="#82B732"/>
</g>
<defs>
<clipPath id="clip0">
<rect width="512" height="512" fill="white"/>
</clipPath>
</defs>
</svg>
